# xmcd
#
# Track frame offsets:
#	150
#	16875
#	37000
#	60525
#
# Disc length: 1076 seconds
#
# Revision: 0
# Processed by: cddbd v1.5.1PL0 Copyright (c) Steve Scherf et al.
# Submitted via: dBpowerAMP V4.0
#
DISCID=2a043204
DTITLE=Steven Levis Project feat. Kim Sanders and Nosie Katzmann - MAXI - Out of my Head
DYEAR=1995
DGENRE=
TTITLE0=Out of my Head (Radio Edit)
TTITLE1=Out of my Head (Out of my Head Mix)
TTITLE2=Out of my Head (Norman Remix)
TTITLE3=Out of my Head (Unplugged)
EXTD=
EXTT0=
EXTT1=
EXTT2=
EXTT3=
PLAYORDER=
